Coordinates
version=1
nRows=4
nColumns=107
inDegrees=yes

Units are S.I. units (second, meters, Newtons, ...)
If the header above contains a line with 'inDegrees', this indicates whether rotational values are in degrees (yes) or radians (no).

endheader
time	sternoclavicular_r2	sternoclavicular_r3	unrotscap_r3	unrotscap_r2	acromioclavicular_r2	acromioclavicular_r3	acromioclavicular_r1	unrothum_r1	unrothum_r3	unrothum_r2	elv_angle	shoulder_elv	shoulder1_r2	shoulder_rot	elbow_flexion	pro_sup	deviation	flexion	proximal_distal_r1	proximal_distal_r3	cmc_flexion	cmc_abduction	mp_flexion	ip_flexion	mcp2_flexion	mcp2_abduction	pm2_flexion	md2_flexion	mcp3_flexion	mcp3_abduction	pm3_flexion	md3_flexion	mcp4_flexion	mcp4_abduction	pm4_flexion	md4_flexion	mcp5_flexion	mcp5_abduction	pm5_flexion	md5_flexion	bicpt_tx	bicpt_ty	bicpt_tz	bicpt2_tx	bicpt2_ty	bicpt2_tz	ptpt_tx	ptpt_ty	ptpt_tz	FCUpt_tx	FCUpt_ty	FCUpt_tz	EDCpt_tx	EDCpt_ty	EDCpt_tz	APLpt_tx	APLpt_ty	APLpt_tz	FPLpt_tx	FPLpt_ty	FPLpt_tz	FPLpt2_tx	FPLpt2_ty	FPLpt2_tz	PEC1pt2_tx	PEC1pt2_ty	PEC1pt2_tz	PEC1pt3_tx	PEC1pt3_ty	PEC1pt3_tz	PEC2pt2_tx	PEC2pt2_ty	PEC2pt2_tz	PEC2pt3_tx	PEC2pt3_ty	PEC2pt3_tz	PEC3pt2_tx	PEC3pt2_ty	PEC3pt2_tz	PEC3pt3_tx	PEC3pt3_ty	PEC3pt3_tz	DELT2pt2a_tx	DELT2pt2a_ty	DELT2pt2a_tz	DELT2pt2_tx	DELT2pt2_ty	DELT2pt2_tz	LAT1pt2_tx	LAT1pt2_ty	LAT1pt2_tz	LAT1pt3_tx	LAT1pt3_ty	LAT1pt3_tz	LAT2pt2_tx	LAT2pt2_ty	LAT2pt2_tz	LAT2pt3_tx	LAT2pt3_ty	LAT2pt3_tz	LAT3pt2_tx	LAT3pt2_ty	LAT3pt2_tz	LAT3pt3_tx	LAT3pt3_ty	LAT3pt3_tz
      1.30000000	     -0.31648222	      0.13404693	     -0.13404693	      0.31648222	     -0.06408121	      0.51788181	      0.23278431	     -0.23278431	     -0.51788181	      0.06408121	    100.54961741	     74.92997841	     -1.75492189	    -32.85127877	     31.36995415	     85.63155591	      0.36010990	      0.11741589	      0.38257696	      0.05870794	      9.96611299	     -3.08941540	    -16.56640201	     -5.51413726	     15.51486101	     10.69606731	     31.71879436	      0.45510722	     17.01051424	      3.04825399	     21.22444270	     18.40663329	     21.81991236	     -4.05572349	     20.43088266	     23.72247610	     22.03074135	    -13.99677318	     23.88302245	      5.35624843	      0.00093762	     -0.03119548	     -0.00487914	      0.01427796	     -0.01872180	     -0.00113912	      0.00122279	     -0.06899128	     -0.00694808	      0.01269568	     -0.18225021	      0.00007366	     -0.01027576	      0.00355780	     -0.00074540	     -0.00013168	     -0.00005267	     -0.00026335	     -0.00016855	     -0.00050564	     -0.00028442	      0.00003274	     -0.00019398	     -0.00023277	      0.00245604	      0.00861695	      0.00599440	     -0.00803417	      0.01939856	     -0.01839949	      0.00245604	      0.00861695	      0.00599440	      0.00054116	      0.01798321	     -0.00944951	      0.00390083	      0.00479178	      0.01585133	      0.00000000	      0.00750695	      0.00000000	     -0.00703510	     -0.03251131	     -0.00618825	      0.02008762	     -0.00085553	     -0.00893518	     -0.00087418	      0.01465299	     -0.00599440	      0.00241441	      0.02114692	     -0.01748368	     -0.00586952	      0.01269648	     -0.00536999	     -0.01223857	      0.02680830	     -0.03001364	     -0.02297855	      0.01419508	     -0.00720161	     -0.01523578	      0.03097108	     -0.03750665
      1.33333333	     -0.31620172	      0.13392812	     -0.13392812	      0.31620172	     -0.06402442	      0.51742281	      0.23257799	     -0.23257799	     -0.51742281	      0.06402442	    100.62643659	     74.86356775	     -1.75626263	    -33.16448421	     31.34890071	     85.63147747	      0.36594624	      0.11380256	      0.38702895	      0.05690128	      9.93289196	     -3.12378565	    -16.55232686	     -5.50271742	     15.28371072	     10.69892964	     31.64097962	      0.46523311	     16.55557517	      2.85687330	     21.18155067	     18.39689459	     21.54583814	     -3.98871766	     20.34084999	     23.66695026	     22.23654605	    -13.97908466	     23.97335568	      5.35828112	      0.00093692	     -0.03119306	     -0.00487875	      0.01427786	     -0.01871608	     -0.00113906	      0.00122280	     -0.06899127	     -0.00694808	      0.01269569	     -0.18225020	      0.00007369	     -0.01027575	      0.00355781	     -0.00074542	     -0.00012728	     -0.00005091	     -0.00025456	     -0.00016292	     -0.00048876	     -0.00027493	      0.00003278	     -0.00019351	     -0.00023221	      0.00245386	      0.00860932	      0.00598909	     -0.00802704	      0.01938136	     -0.01838318	      0.00245386	      0.00860932	      0.00598909	      0.00054068	      0.01796727	     -0.00944114	      0.00389829	      0.00478753	      0.01584498	      0.00000000	      0.00749356	      0.00000000	     -0.00702886	     -0.03248250	     -0.00617713	      0.02021386	     -0.00086648	     -0.00909863	     -0.00087341	      0.01464000	     -0.00598909	      0.00241227	      0.02112818	     -0.01746818	     -0.00586432	      0.01268523	     -0.00536523	     -0.01222773	      0.02678454	     -0.02998704	     -0.02295818	      0.01418250	     -0.00719523	     -0.01522227	      0.03094363	     -0.03747341
      1.36666667	     -0.31404028	      0.13301264	     -0.13301264	      0.31404028	     -0.06358677	      0.51388589	      0.23098817	     -0.23098817	     -0.51388589	      0.06358677	    101.37140453	     74.35182706	     -1.76926478	    -36.29157699	     31.27119958	     86.36379005	      0.32155273	      0.00925086	      0.35176211	      0.00462543	      9.87933761	     -2.81582454	    -17.41432468	     -4.85150990	     15.29708059	     10.64007496	     31.47414115	      1.83715798	     15.73314726	      2.78275670	     22.43837899	     17.99586287	     20.83002552	     -4.16244284	     21.26583659	     22.65269309	     21.92592335	    -13.97921225	     23.68409293	      5.39613040	      0.00093435	     -0.03118416	     -0.00487731	      0.01420216	     -0.01869497	     -0.00101365	      0.00116869	     -0.06902626	     -0.00700707	      0.01277981	     -0.18222540	      0.00009386	     -0.01036363	      0.00359800	     -0.00076893	     -0.00000953	     -0.00000381	     -0.00001906	     -0.00001220	     -0.00003660	     -0.00002059	      0.00003285	     -0.00019276	     -0.00023131	      0.00243709	      0.00855047	      0.00594815	     -0.00797217	      0.01924888	     -0.01825752	      0.00243709	      0.00855047	      0.00594815	      0.00053699	      0.01784445	     -0.00937660	      0.00387862	      0.00475481	      0.01579570	      0.00000000	      0.00739080	      0.00000000	     -0.00698082	     -0.03226046	     -0.00609179	      0.02140234	     -0.00097704	     -0.01078785	     -0.00086744	      0.01453993	     -0.00594815	      0.00239578	      0.02098376	     -0.01734877	     -0.00582423	      0.01259851	     -0.00532855	     -0.01214414	      0.02660145	     -0.02978206	     -0.02280125	      0.01408555	     -0.00714604	     -0.01511822	      0.03073211	     -0.03721725
      1.40000000	     -0.31417102	      0.13306802	     -0.13306802	      0.31417102	     -0.06361324	      0.51409984	      0.23108434	     -0.23108434	     -0.51409984	      0.06361324	    101.37463521	     74.38278210	     -1.76932116	    -36.29676520	     31.28635012	     86.36297191	      0.32161613	      0.00919258	      0.35181450	      0.00459629	      9.87898097	     -2.81656230	    -17.41464395	     -4.85172932	     15.29438764	     10.63980236	     31.47381958	      1.83704539	     15.72923714	      2.78239368	     22.43785011	     17.99576520	     20.82869485	     -4.16234360	     21.26555842	     22.65268747	     21.92578797	    -13.97927368	     23.68447412	      5.39612674	      0.00093486	     -0.03118589	     -0.00487759	      0.01420224	     -0.01869909	     -0.00101379	      0.00116875	     -0.06902622	     -0.00700700	      0.01277972	     -0.18222542	      0.00009384	     -0.01036353	      0.00359795	     -0.00076891	     -0.00000948	     -0.00000379	     -0.00001895	     -0.00001213	     -0.00003639	     -0.00002047	      0.00003285	     -0.00019276	     -0.00023131	      0.00243810	      0.00855403	      0.00595063	     -0.00797549	      0.01925689	     -0.01826512	      0.00243810	      0.00855403	      0.00595063	      0.00053721	      0.01785188	     -0.00938050	      0.00387982	      0.00475679	      0.01579870	      0.00000000	      0.00739700	      0.00000000	     -0.00698372	     -0.03227389	     -0.00609693	      0.02140420	     -0.00097722	     -0.01079074	     -0.00086780	      0.01454598	     -0.00595063	      0.00239678	      0.02099249	     -0.01735600	     -0.00582666	      0.01260376	     -0.00533077	     -0.01214920	      0.02661253	     -0.02979446	     -0.02281074	      0.01409142	     -0.00714902	     -0.01512451	      0.03074491	     -0.03723275
